<?xml version="1.0" encoding="UTF-8"?>
<svg width="69px" height="79px" viewBox="0 0 69 79" version="1.1" xmlns="http://www.w3.org/2000/svg" xmlns:xlink="http://www.w3.org/1999/xlink">
    <!-- Generator: Sketch 48.2 (47327) - http://www.bohemiancoding.com/sketch -->
    <title>icon-booking</title>
    <desc>Created with Sketch.</desc>
    <defs>
        <polygon id="path-1" points="0.648621207 0.449928235 25.2223905 0.449928235 25.2223905 65.9882353 0.648621207 65.9882353"></polygon>
        <polygon id="path-3" points="0.808512162 0.0697988235 20.4090811 0.0697988235 20.4090811 17.62174 0.808512162 17.62174"></polygon>
    </defs>
    <g id="Landing-Page" stroke="none" stroke-width="1" fill="none" fill-rule="evenodd" transform="translate(-606.000000, -1581.000000)">
        <g id="Easy-Booking" transform="translate(0.000000, 1442.000000)">
            <g id="icon-booking" transform="translate(606.000000, 139.000000)">
                <g id="Page-1">
                    <path d="M0.000186486486,16.3602494 L1.59278108,43.2936729 C1.59278108,44.8588024 2.72568649,46.1544024 4.21664595,46.4174259 C4.19706486,46.55312 4.18401081,46.6934612 4.18401081,46.8328729 L4.18401081,75.7598847 C4.18401081,77.3956494 5.51272703,78.7200612 7.15380811,78.7200612 C7.25730811,78.7200612 7.35987568,78.7163435 7.45778108,78.70612 L13.8747811,78.70612 C15.5149297,78.70612 16.8455108,78.9682141 16.8455108,77.3305906 C16.8455108,75.6966847 15.5158622,74.3704141 13.8747811,74.3704141 L10.122673,73.4828259 L10.122673,46.8347318 C10.122673,46.6730141 10.1068216,46.5131553 10.0825784,46.3588729 C11.4420649,45.9973318 12.4453622,44.7630729 12.4453622,43.2927435 L12.2663351,30.7633435 L19.7183351,39.3241553 C20.7179027,40.4738376 22.4662135,40.5993082 23.6196324,39.6001906 C24.7739838,38.6010729 24.8989297,36.8602847 23.8965649,35.7078141 L12.1423216,22.20532 L12.0882405,18.3910141 L3.18444324,13.1853788 C1.42680811,13.1863082 0.000186486486,14.6073788 0.000186486486,16.3602494" id="Fill-1" fill="#FFFFFF"></path>
                    <path d="M7.15371486,0.000743529412 C10.5459041,0.000743529412 13.2956473,2.74157882 13.2956473,6.12277882 C13.2956473,9.50397882 10.5459041,12.2448141 7.15371486,12.2448141 C3.76152568,12.2448141 1.01178243,9.50397882 1.01178243,6.12277882 C1.01178243,2.74157882 3.76152568,0.000743529412 7.15371486,0.000743529412" id="Fill-3" fill="#FFFFFF"></path>
                    <g id="Group-7" transform="translate(41.027027, 12.736380)">
                        <mask id="mask-2" fill="white">
                            <use xlink:href="#path-1"></use>
                        </mask>
                        <g id="Clip-6"></g>
                        <path d="M22.0334716,0.449928235 L13.1324716,5.65556353 L13.0755932,9.46986941 L1.32321486,22.9732929 C0.32457973,24.1248341 0.448593243,25.8665518 1.60294459,26.8656694 C2.75449865,27.8629282 4.50001216,27.7374576 5.50330946,26.5896341 L12.9562419,18.0288224 L12.7772149,30.5572929 C12.7772149,32.0276224 13.7786473,33.2618812 15.1409311,33.6234224 C15.114823,33.7777047 15.0980392,33.9375635 15.0980392,34.0992812 L15.0980392,60.7501635 L11.3477959,61.6368224 C9.7076473,61.6368224 8.37520135,62.9640224 8.37520135,64.5979282 C8.37520135,66.2355518 9.70857973,65.9734576 11.3477959,65.9734576 L17.7638635,65.9734576 C17.8636338,65.9836812 17.9671338,65.9873988 18.0715662,65.9873988 C19.7117149,65.9873988 21.0394986,64.6629871 21.0394986,63.0272224 L21.0394986,34.0983518 C21.0394986,33.9580106 21.0245797,33.8185988 21.0040662,33.6819753 C22.4996878,33.4189518 23.6297959,32.1214929 23.6297959,30.5582224 L25.2223905,3.62479882 C25.2205257,1.87099882 23.7957689,0.449928235 22.0334716,0.449928235" id="Fill-5" fill="#FFFFFF" mask="url(#mask-2)"></path>
                    </g>
                    <path d="M59.0940243,-0.000185882353 C62.4862135,-0.000185882353 65.2359568,2.74064941 65.2359568,6.12184941 C65.2359568,9.50304941 62.4862135,12.2438847 59.0940243,12.2438847 C55.7018351,12.2438847 52.9520919,9.50304941 52.9520919,6.12184941 C52.9520919,2.74064941 55.7018351,-0.000185882353 59.0940243,-0.000185882353" id="Fill-8" fill="#FFFFFF"></path>
                    <path d="M59.0940243,42.6238459 C57.5629703,42.6238459 56.2566324,43.5681282 55.7186189,44.9009047 L62.4703622,44.9009047 C61.9342135,43.5681282 60.6260108,42.6238459 59.0940243,42.6238459" id="Fill-10" fill="#FFFFFF"></path>
                    <g id="Group-14" transform="translate(48.486486, 41.548145)">
                        <mask id="mask-4" fill="white">
                            <use xlink:href="#path-3"></use>
                        </mask>
                        <g id="Clip-13"></g>
                        <path d="M7.23203919,3.35248118 C7.7700527,2.01877529 9.07732297,1.07542235 10.6074446,1.07542235 C12.1394311,1.07542235 13.4476338,2.01970471 13.9837824,3.35248118 L7.23203919,3.35248118 Z M18.7559716,3.35248118 L15.5222959,3.35248118 C14.7269311,1.42766941 12.8266338,0.0697988235 10.6074446,0.0697988235 C8.38918784,0.0697988235 6.48795811,1.42766941 5.69259324,3.35248118 L2.45985,3.35248118 C1.54699865,3.35248118 0.808512162,3.88968118 0.808512162,4.55421059 L0.808512162,16.4181518 C0.808512162,17.0826812 1.54793108,17.62174 2.45985,17.62174 L18.7578365,17.62174 C19.6706878,17.62174 20.4091743,17.0826812 20.4091743,16.4181518 L20.4091743,4.55421059 C20.4082419,3.89061059 19.6697554,3.35248118 18.7559716,3.35248118 Z" id="Fill-12" fill="#FFFFFF" mask="url(#mask-4)"></path>
                    </g>
                    <path d="M22.3194486,6.85831529 C21.5418,6.54789176 19.8932595,6.61852706 19.581827,7.39272706 C19.271327,8.16692706 20.4144892,9.35192706 21.1921378,9.66235059 L41.6208,16.2667506 C41.6208,16.2667506 43.1238811,16.5065388 45.2339757,15.2936565" id="Fill-15" fill="#FFFFFF"></path>
                    <polyline id="Fill-17" fill="#FFFFFF" points="29.3577284 9.06929294 40.1385122 3.94823412 41.3721203 5.19643412 36.9738365 11.8993518"></polyline>
                    <polyline id="Fill-19" fill="#FFFFFF" points="42.7227486 14.0776141 46.3946676 12.3266024 46.8711405 12.7141671 45.3186405 15.0330494"></polyline>
                </g>
            </g>
        </g>
    </g>
</svg>