<?xml version="1.0" encoding="UTF-8"?>
<svg width="59px" height="60px" viewBox="0 0 59 60" version="1.1" xmlns="http://www.w3.org/2000/svg" xmlns:xlink="http://www.w3.org/1999/xlink">
    <!-- Generator: Sketch 48.2 (47327) - http://www.bohemiancoding.com/sketch -->
    <title>pricing-icon</title>
    <desc>Created with Sketch.</desc>
    <defs>
        <polygon id="path-1" points="8.9090742e-05 0.0003 58.205978 0.0003 58.205978 59.9943 8.9090742e-05 59.9943"></polygon>
    </defs>
    <g id="Landing-Page" stroke="none" stroke-width="1" fill="none" fill-rule="evenodd" transform="translate(-611.000000, -2342.000000)">
        <g id="Simple-Pricing" transform="translate(335.000000, 2342.000000)">
            <g id="pricing-icon" transform="translate(276.000000, 0.000000)">
                <g>
                    <mask id="mask-2" fill="white">
                        <use xlink:href="#path-1"></use>
                    </mask>
                    <g id="Clip-2"></g>
                    <path d="M44.1566,29.2928 C41.9676,30.8158 38.9566,30.2758 37.4336,28.0858 C35.9096,25.8968 36.4496,22.8868 38.6396,21.3628 C40.3236,20.1918 42.5636,20.2108 44.2266,21.4128 C43.4066,21.9028 42.8466,22.1928 42.7466,22.2428 C41.8416,22.6708 41.4536,23.7518 41.8816,24.6578 C42.3096,25.5638 43.3906,25.9508 44.2966,25.5228 C44.8766,25.2428 45.5066,24.9228 46.1566,24.5228 C46.4646,26.3648 45.6866,28.2208 44.1566,29.2928 M57.2666,1.2128 C56.9356,0.2688 55.9016,-0.2282 54.9566,0.1028 C54.0126,0.4338 53.5156,1.4688 53.8466,2.4128 C56.6366,10.4128 51.1066,16.4128 46.8466,19.6128 L45.1466,17.1728 C44.4506,16.2918 43.4166,15.7438 42.2966,15.6628 L32.7366,15.6628 C31.5706,15.6938 30.4336,16.0398 29.4466,16.6628 L1.2966,36.4728 C-0.0674,37.4138 -0.4094,39.2818 0.5306,40.6458 C0.5396,40.6578 0.5486,40.6698 0.5566,40.6828 L13.3566,59.0028 C14.3566,60.3628 15.8466,60.2028 17.2166,59.2528 L45.4066,39.4928 C46.3306,38.7748 47.0476,37.8268 47.4866,36.7428 L50.4866,27.3028 C50.7966,26.2218 50.6366,25.0608 50.0466,24.1028 L49.0466,22.6128 C54.6566,18.2728 60.5366,10.6028 57.2666,1.2128" id="Fill-1" fill="#FFCA00" mask="url(#mask-2)"></path>
                </g>
            </g>
        </g>
    </g>
</svg>