<?xml version="1.0" encoding="UTF-8"?>
<svg width="299px" height="64px" viewBox="0 0 299 64" version="1.1" xmlns="http://www.w3.org/2000/svg" xmlns:xlink="http://www.w3.org/1999/xlink">
    <!-- Generator: Sketch 48.2 (47327) - http://www.bohemiancoding.com/sketch -->
    <title>plane</title>
    <desc>Created with Sketch.</desc>
    <defs>
        <polygon id="path-1" points="0 0.468292683 14.1359686 0.468292683 14.1359686 14.5170732 0 14.5170732"></polygon>
        <polygon id="path-3" points="0 63.2195122 298.573822 63.2195122 298.573822 0 0 0"></polygon>
    </defs>
    <g id="Landing-Page" stroke="none" stroke-width="1" fill="none" fill-rule="evenodd" transform="translate(-490.000000, -838.000000)">
        <g id="Say-Goodbye" transform="translate(265.000000, 838.000000)">
            <g id="plane" transform="translate(225.000000, 0.000000)">
                <g id="Page-1">
                    <path d="M141.361257,31.6878049 C141.361257,31.3756098 141.204188,31.0634146 140.890052,31.0634146 L135.706806,29.1902439 C134.60733,28.8780488 134.136126,29.0341463 134.136126,29.0341463 L120.314136,29.0341463 C118.900524,29.0341463 118.743455,28.7219512 118.743455,28.7219512 L113.717277,20.7609756 L117.643979,20.7609756 C117.801047,20.7609756 118.115183,20.604878 118.115183,20.2926829 L118.115183,19.0439024 C118.115183,18.8878049 117.958115,18.5756098 117.643979,18.5756098 L112.303665,18.5756098 L108.062827,12.1756098 L112.617801,12.1756098 C112.774869,12.1756098 113.089005,12.0195122 113.089005,11.7073171 L113.089005,10.4585366 C113.089005,10.302439 112.931937,9.9902439 112.617801,9.9902439 L106.649215,9.9902439 L100.366492,0.468292683 C100.052356,0 99.4240838,0 99.4240838,0 L99.2670157,0 L97.0680628,0 C96.4397906,0 96.7539267,0.624390244 96.7539267,0.624390244 L103.82199,22.3219512 C104.293194,23.7268293 104.450262,25.4439024 104.450262,25.4439024 L104.450262,29.1902439 L99.7382199,29.1902439 C99.7382199,29.1902439 90.6282723,29.1902439 84.1884817,30.595122 L76.3350785,21.3853659 C76.3350785,21.3853659 76.0209424,21.0731707 75.5497382,21.0731707 L73.6649215,21.0731707 L77.434555,31.6878049 L73.6649215,42.302439 L75.3926702,42.302439 C76.0209424,42.302439 76.1780105,41.9902439 76.1780105,41.9902439 L84.0314136,32.7804878 C90.4712042,34.1853659 99.5811518,34.1853659 99.5811518,34.1853659 L104.293194,34.1853659 L104.293194,37.9317073 C104.293194,37.9317073 104.293194,39.6487805 103.664921,41.0536585 L96.5968586,62.595122 C96.5968586,62.595122 96.2827225,63.2195122 96.9109948,63.2195122 L99.1099476,63.2195122 L99.2670157,63.2195122 C99.2670157,63.2195122 99.7382199,63.2195122 100.209424,62.7512195 L106.492147,53.2292683 L112.460733,53.2292683 C112.617801,53.2292683 112.931937,53.0731707 112.931937,52.7609756 L112.931937,51.5121951 C112.931937,51.3560976 112.774869,51.0439024 112.460733,51.0439024 L107.905759,51.0439024 L112.146597,44.6439024 L117.486911,44.6439024 C117.643979,44.6439024 117.958115,44.4878049 117.958115,44.1756098 L117.958115,42.9268293 C117.958115,42.7707317 117.801047,42.4585366 117.486911,42.4585366 L113.560209,42.4585366 L118.900524,34.497561 C118.900524,34.497561 119.057592,34.1853659 120.471204,34.1853659 L134.136126,34.1853659 C134.136126,34.1853659 134.60733,34.3414634 135.706806,34.0292683 L140.890052,32.1560976 C141.204188,32.3121951 141.361257,32 141.361257,31.6878049" id="Fill-1" fill="#FFCA00"></path>
                    <g id="Group-5" transform="translate(0.000000, 24.195122)">
                        <mask id="mask-2" fill="white">
                            <use xlink:href="#path-1"></use>
                        </mask>
                        <g id="Clip-4"></g>
                        <path d="M3.76947644,7.49268293 C3.76947644,5.6195122 5.34015707,4.21463415 7.06790576,4.21463415 C8.95272251,4.21463415 10.3663351,5.77560976 10.3663351,7.49268293 C10.3663351,9.36585366 8.79565445,10.7707317 7.06790576,10.7707317 C5.34015707,10.7707317 3.76947644,9.36585366 3.76947644,7.49268293 M14.1359686,7.49268293 C14.1359686,3.5902439 10.9946073,0.468292683 7.06790576,0.468292683 C3.14120419,0.468292683 -0.000157068063,3.5902439 -0.000157068063,7.49268293 C-0.000157068063,11.395122 3.14120419,14.5170732 7.06790576,14.5170732 C10.9946073,14.5170732 14.1359686,11.395122 14.1359686,7.49268293" id="Fill-3" fill="#FFCA00" mask="url(#mask-2)"></path>
                    </g>
                    <path d="M211.996649,31.6878049 C211.996649,29.8146341 213.56733,28.4097561 215.295079,28.4097561 C217.179895,28.4097561 218.593508,29.9707317 218.593508,31.6878049 C218.593508,33.5609756 217.022827,34.9658537 215.295079,34.9658537 C213.56733,34.9658537 211.996649,33.5609756 211.996649,31.6878049 M222.363141,31.6878049 C222.363141,27.7853659 219.22178,24.6634146 215.295079,24.6634146 C211.368377,24.6634146 208.227016,27.7853659 208.227016,31.6878049 C208.227016,35.5902439 211.368377,38.7121951 215.295079,38.7121951 C219.22178,38.7121951 222.363141,35.5902439 222.363141,31.6878049" id="Fill-6" fill="#FFCA00"></path>
                    <mask id="mask-4" fill="white">
                        <use xlink:href="#path-3"></use>
                    </mask>
                    <g id="Clip-9"></g>
                    <path d="M20.5759162,32.7804878 L24.8167539,32.7804878 L24.8167539,30.595122 L20.5759162,30.595122 L20.5759162,32.7804878 Z M29.0575916,32.7804878 L33.2984293,32.7804878 L33.2984293,30.595122 L29.0575916,30.595122 L29.0575916,32.7804878 Z M37.539267,32.7804878 L41.7801047,32.7804878 L41.7801047,30.595122 L37.539267,30.595122 L37.539267,32.7804878 Z M46.0209424,32.7804878 L50.2617801,32.7804878 L50.2617801,30.595122 L46.0209424,30.595122 L46.0209424,32.7804878 Z M54.5026178,32.7804878 L58.7434555,32.7804878 L58.7434555,30.595122 L54.5026178,30.595122 L54.5026178,32.7804878 Z M62.9842932,32.7804878 L67.2251309,32.7804878 L67.2251309,30.595122 L62.9842932,30.595122 L62.9842932,32.7804878 Z" id="Fill-8" fill="#FFCA00" mask="url(#mask-4)"></path>
                    <path d="M153.865445,32.7804878 L158.106283,32.7804878 L158.106283,30.595122 L153.865445,30.595122 L153.865445,32.7804878 Z M162.34712,32.7804878 L166.587958,32.7804878 L166.587958,30.595122 L162.34712,30.595122 L162.34712,32.7804878 Z M170.828796,32.7804878 L175.069634,32.7804878 L175.069634,30.595122 L170.828796,30.595122 L170.828796,32.7804878 Z M179.310471,32.7804878 L183.551309,32.7804878 L183.551309,30.595122 L179.310471,30.595122 L179.310471,32.7804878 Z M187.792147,32.7804878 L192.032984,32.7804878 L192.032984,30.595122 L187.792147,30.595122 L187.792147,32.7804878 Z M196.273822,32.7804878 L200.51466,32.7804878 L200.51466,30.595122 L196.273822,30.595122 L196.273822,32.7804878 Z" id="Fill-10" fill="#FFCA00" mask="url(#mask-4)"></path>
                    <path d="M288.207644,31.6878049 C288.207644,29.8146341 289.778325,28.4097561 291.506073,28.4097561 C293.39089,28.4097561 294.804503,29.9707317 294.804503,31.6878049 C294.804503,33.5609756 293.233822,34.9658537 291.506073,34.9658537 C289.778325,34.9658537 288.207644,33.5609756 288.207644,31.6878049 M298.574136,31.6878049 C298.574136,27.7853659 295.432775,24.6634146 291.506073,24.6634146 C287.579372,24.6634146 284.43801,27.7853659 284.43801,31.6878049 C284.43801,35.5902439 287.579372,38.7121951 291.506073,38.7121951 C295.432775,38.7121951 298.574136,35.5902439 298.574136,31.6878049" id="Fill-11" fill="#FFCA00" mask="url(#mask-4)"></path>
                    <path d="M230.07644,32.7804878 L234.317277,32.7804878 L234.317277,30.595122 L230.07644,30.595122 L230.07644,32.7804878 Z M238.558115,32.7804878 L242.798953,32.7804878 L242.798953,30.595122 L238.558115,30.595122 L238.558115,32.7804878 Z M247.03822,32.7804878 L251.279058,32.7804878 L251.279058,30.595122 L247.03822,30.595122 L247.03822,32.7804878 Z M255.521466,32.7804878 L259.762304,32.7804878 L259.762304,30.595122 L255.521466,30.595122 L255.521466,32.7804878 Z M264.003141,32.7804878 L268.243979,32.7804878 L268.243979,30.595122 L264.003141,30.595122 L264.003141,32.7804878 Z M272.484817,32.7804878 L276.725654,32.7804878 L276.725654,30.595122 L272.484817,30.595122 L272.484817,32.7804878 Z" id="Fill-12" fill="#FFCA00" mask="url(#mask-4)"></path>
                </g>
            </g>
        </g>
    </g>
</svg>