<?xml version="1.0" encoding="UTF-8"?>
<svg width="233px" height="55px" viewBox="0 0 233 55" version="1.1" xmlns="http://www.w3.org/2000/svg" xmlns:xlink="http://www.w3.org/1999/xlink">
    <!-- Generator: Sketch 48.2 (47327) - http://www.bohemiancoding.com/sketch -->
    <title>strabe-logo</title>
    <desc>Created with Sketch.</desc>
    <defs>
        <polygon id="path-1" points="0.0352076167 0.188367876 34.2192273 0.188367876 34.2192273 51.7752902 0.0352076167 51.7752902"></polygon>
        <polygon id="path-3" points="0 8.5492228e-05 42.9360321 8.5492228e-05 42.9360321 42.746114 0 42.746114"></polygon>
    </defs>
    <g id="Landing-Page" stroke="none" stroke-width="1" fill="none" fill-rule="evenodd" transform="translate(-131.000000, -84.000000)">
        <g id="Hero">
            <g id="strabe-logo" transform="translate(131.000000, 84.000000)">
                <g id="Page-1">
                    <path d="M68.0374312,30.8789663 C64.6552101,30.0189145 61.992312,29.2309611 61.992312,26.9380596 C61.992312,24.2872306 64.7991892,22.7110389 68.1095639,22.7110389 C70.8443084,22.7110389 73.2910946,23.7856762 75.3783624,25.3621528 L78.9045627,20.4899508 C76.2416646,18.3403912 72.6433317,16.7641995 67.6776265,16.7641995 C61.6325074,16.7641995 55.1554509,20.0599249 55.1554509,27.296557 C55.1554509,32.0254171 58.8256302,34.6044326 62.9277469,35.9660389 C67.8934521,37.6137591 73.5069201,37.8289145 73.5069201,41.6977228 C73.5069201,44.3491218 70.5563501,45.9253135 67.6054939,45.9253135 C64.2232727,45.9253135 60.7686327,44.6352358 57.6022371,42.1995622 L54.0760369,47.2148212 C57.8180627,50.2241477 62.3521167,51.8718679 67.749473,51.8718679 C74.3705086,51.8718679 80.3437813,47.9312461 80.3437813,41.5546658 C80.3437813,34.6044326 73.362941,32.2402876 68.0374312,30.8789663" id="Fill-1" fill="#FFFFFF"></path>
                    <path d="M94.8294543,8.16618912 L87.9923069,8.16618912 L87.9923069,17.4808523 L79.3564224,17.4808523 L79.3564224,23.5707487 L87.9923069,23.5707487 L87.9923069,38.9750233 C87.9923069,42.6292461 88.7122025,45.710101 90.7270514,47.9311891 C92.8861656,50.3674326 96.0525612,51.8718109 100.298657,51.8718109 C102.241946,51.8718109 104.328927,51.5851269 105.624453,51.155671 L104.257081,44.9933912 C103.249513,45.2800751 101.522336,45.4234171 100.514769,45.4234171 C98.7154592,45.4234171 96.7724568,44.7788057 95.8370219,43.6323549 C94.9734334,42.6292461 94.8294543,41.1245829 94.8294543,39.3335207 L94.8294543,23.5707487 L105.624453,23.5707487 L105.624453,17.4808523 L94.8294543,17.4808523 L94.8294543,8.16618912 Z" id="Fill-3" fill="#FFFFFF"></path>
                    <path d="M127.127433,16.9792409 C126.335691,16.835899 125.184145,16.7640855 124.464822,16.7640855 C119.499116,16.7640855 115.972344,19.056987 114.3173,21.3496036 L114.3173,17.4807953 L107.696264,17.4807953 L107.696264,51.155614 L114.533411,51.155614 L114.533411,28.8726347 C116.404567,25.6484378 120.146593,23.2124793 123.67308,23.2124793 C124.752494,23.2124793 125.544236,23.2842927 126.335691,23.4991632 L127.127433,16.9792409 Z" id="Fill-5" fill="#FFFFFF"></path>
                    <path d="M152.861969,40.623171 C150.559161,43.7043109 147.032961,45.4235596 143.578321,45.4235596 C137.029418,45.4235596 132.351671,40.336487 132.351671,34.3181192 C132.351671,28.4428083 136.669614,23.2123938 143.218516,23.2123938 C147.320633,23.2123938 150.774987,25.2901399 152.861969,28.0130674 L152.861969,40.623171 Z M153.07808,20.5618497 C149.983531,17.9104508 146.313066,16.764 142.498907,16.764 C139.332225,16.764 136.525634,17.5522383 134.222541,18.9135596 C129.112857,21.922886 125.514524,27.5830415 125.514524,34.3181192 C125.514524,41.0529119 129.04101,46.6415389 134.150695,49.6508653 C136.453788,51.0121865 139.620184,51.8719534 142.642886,51.8719534 C146.67287,51.8719534 150.34305,50.5106321 153.07808,48.0746736 L153.07808,51.1555285 L159.69883,51.1555285 L159.69883,17.4807098 L153.07808,17.4807098 L153.07808,20.5618497 Z" id="Fill-7" fill="#FFFFFF"></path>
                    <g id="Group-11" transform="translate(165.160934, 0.096606)">
                        <mask id="mask-2" fill="white">
                            <use xlink:href="#path-1"></use>
                        </mask>
                        <g id="Clip-10"></g>
                        <path d="M16.1557162,45.3268964 C12.7013624,45.3268964 9.17487592,43.6076477 6.8720688,40.5265078 L6.8720688,27.9164041 C8.95905037,25.1937617 12.4136904,23.1160155 16.5158071,23.1160155 C23.0647101,23.1160155 27.3826523,28.3461451 27.3826523,34.221456 C27.3826523,40.2398238 22.7049054,45.3268964 16.1557162,45.3268964 M25.5114963,18.8171813 C23.2086892,17.4555751 20.401812,16.6676218 17.2351302,16.6676218 C13.5649509,16.6676218 9.8947715,17.8137876 6.8720688,20.3215596 L6.8720688,0.188139896 L0.0352076167,0.188139896 L0.0352076167,51.0588653 L6.65624324,51.0588653 L6.65624324,47.9782953 C9.39070147,50.4142539 13.0611671,51.7752902 17.0914373,51.7752902 C20.1138538,51.7752902 23.2808219,50.9155233 25.583629,49.5542021 C30.693027,46.5448756 34.2192273,40.9562487 34.2192273,34.221456 C34.2192273,27.4863782 30.6211806,21.8262228 25.5114963,18.8171813" id="Fill-9" fill="#FFFFFF" mask="url(#mask-2)"></path>
                    </g>
                    <path d="M216.88908,22.7110104 C220.919351,22.7110104 224.805356,25.7203368 225.812923,30.019171 L207.389321,30.019171 C208.541154,25.6485233 212.499006,22.7110104 216.88908,22.7110104 M206.813691,35.7511399 L232.86561,35.7511399 C232.937456,35.1062435 232.937456,34.6044041 232.937456,34.3180052 C232.937456,24.3590155 226.100881,16.764171 216.672969,16.764171 C207.101649,16.764171 200.192655,24.2153886 200.192655,34.3180052 C200.192655,44.4203368 207.821259,51.8718394 217.680822,51.8718394 C220.432455,51.8718394 222.562373,51.7683938 224.289836,51.4409585 L224.289836,53.8361658 L232.234735,48.553601 L224.289836,43.2707513 L224.289836,45.8605959 C223.407069,45.9309845 222.310767,45.9668912 221.961553,45.9760104 C218.28708,46.068342 214.285434,46.068342 211.197755,43.7888342 C209.912534,42.8404404 208.843711,41.6090674 208.087176,40.2061399 C207.902265,39.8633161 206.490811,35.7511399 206.813691,35.7511399" id="Fill-12" fill="#FFFFFF"></path>
                    <g id="Group-16" transform="translate(0.000000, 12.065518)">
                        <mask id="mask-4" fill="white">
                            <use xlink:href="#path-3"></use>
                        </mask>
                        <g id="Clip-15"></g>
                        <path d="M30.4238748,29.2711995 C29.6046537,30.4663808 28.4356463,31.1722617 27.056252,31.5450078 C25.4853625,31.9693342 23.901306,31.9661995 22.3186807,31.6025725 C21.1304952,31.3295674 20.0387729,30.8428316 19.071279,30.0944896 C19.032064,30.0639974 18.9948527,30.0309404 18.9407532,29.9859145 C19.6612213,29.122728 20.3653736,28.2789197 21.0617974,27.4442306 C21.4834301,27.6531166 21.8798736,27.879101 22.2989301,28.0520803 C23.4484731,28.5265622 24.6346549,28.6738938 25.8540407,28.3555777 C26.4734657,28.1937124 27.0219031,27.9038938 27.3568048,27.3345155 C27.8182249,26.5499819 27.7297765,25.756899 27.3264633,24.9786347 C27.0304903,24.4072617 26.5865308,23.9515881 26.0821746,23.5705777 C25.1816611,22.8892047 24.2533822,22.2443083 23.3362667,21.5848782 C23.2191942,21.5008109 23.0972557,21.4235829 22.9635812,21.3335311 C23.917908,19.1808368 24.8682274,17.0361218 25.8345763,14.8560699 C25.4438576,14.778842 25.0711721,14.6956295 24.6950517,14.6320803 C23.4902643,14.4288938 22.2777483,14.316044 21.0549276,14.360785 C20.0922999,14.3961218 19.148564,14.5380389 18.2520579,14.910785 C16.6997741,15.5559663 15.8061303,16.714386 15.5613945,18.364101 C15.5032876,18.7556554 15.4812471,19.1554741 15.4806746,19.5515881 C15.4746635,23.4172617 15.4772397,27.2829352 15.4772397,31.1488938 L15.4772397,31.4472617 L11.5686217,31.4472617 C11.5631832,31.3911218 11.5531647,31.3361218 11.5531647,31.2808368 C11.5545959,27.4148782 11.5385665,23.5492047 11.5669043,19.6835311 C11.5797851,17.9380648 11.9776598,16.274956 12.9274068,14.7762772 C13.9163687,13.2157591 15.3324018,12.1972617 17.0570026,11.5791528 C18.4936451,11.0639197 19.9858183,10.8769767 21.5051844,10.8764067 C23.8987299,10.8758368 26.2536328,11.1602409 28.5435591,11.8775207 C29.1286353,12.0604741 29.696537,12.2972876 30.2879104,12.5155777 C29.2528638,14.9558109 28.2375677,17.3484534 27.2128257,19.7641788 C27.2843859,19.8123394 27.3527974,19.8610699 27.4240714,19.9058109 C28.415037,20.5338938 29.3218478,21.2565881 30.0626389,22.1764845 C31.6730296,24.1758627 31.8379043,27.2077021 30.4238748,29.2711995 M21.4679731,8.5492228e-05 C9.61159349,8.5492228e-05 -8.58722359e-05,9.5689456 -8.58722359e-05,21.3731425 C-8.58722359e-05,33.1770544 9.61159349,42.7461995 21.4679731,42.7461995 C33.3246389,42.7461995 42.9360321,33.1770544 42.9360321,21.3731425 C42.9360321,9.5689456 33.3246389,8.5492228e-05 21.4679731,8.5492228e-05" id="Fill-14" fill="#FFFFFF" mask="url(#mask-4)"></path>
                    </g>
                </g>
            </g>
        </g>
    </g>
</svg>